M48
; DRILL file {KiCad 9.0.6} date 2026-05-21T15:27:07+0300
; FORMAT={-:-/ absolute / metric / decimal}
; #@! TF.CreationDate,2026-05-21T15:27:07+03:00
; #@! TF.GenerationSoftware,Kicad,Pcbnew,9.0.6
; #@! TF.FileFunction,Plated,1,2,PTH
FMAT,2
METRIC
; #@! TA.AperFunction,Plated,PTH,ViaDrill
T1C0.300
; #@! TA.AperFunction,Plated,PTH,ComponentDrill
T2C0.700
; #@! TA.AperFunction,Plated,PTH,ComponentDrill
T3C0.750
; #@! TA.AperFunction,Plated,PTH,ComponentDrill
T4C0.800
; #@! TA.AperFunction,Plated,PTH,ComponentDrill
T5C0.900
; #@! TA.AperFunction,Plated,PTH,ComponentDrill
T6C1.000
; #@! TA.AperFunction,Plated,PTH,ComponentDrill
T7C3.200
%
G90
G05
T1
X60.25Y-54.0
X60.25Y-78.25
X60.75Y-61.5
X60.75Y-68.75
X62.0Y-97.75
X62.02Y-92.16
X67.0Y-67.0
X67.75Y-53.0
X67.75Y-79.75
X71.75Y-74.75
X72.25Y-50.5
X73.06Y-104.63
X73.28Y-97.58
X74.25Y-50.5
X76.5Y-50.5
X76.5Y-74.75
X76.75Y-68.75
X77.25Y-65.75
X78.689Y-88.5
X78.689Y-92.75
X78.689Y-103.5
X79.0Y-50.5
X81.5Y-75.0
X82.25Y-58.5
X82.5Y-68.75
X82.85Y-60.0
X83.75Y-67.25
X85.5Y-50.5
X85.5Y-74.75
X88.0Y-50.5
X88.5Y-73.75
X88.689Y-87.5
X88.75Y-61.0
X89.189Y-107.25
X89.75Y-65.75
X90.75Y-50.5
X91.25Y-75.0
X91.5Y-60.5
X91.5Y-67.75
X92.0Y-63.25
X94.0Y-50.5
X96.75Y-64.0
X96.75Y-74.75
X98.689Y-107.25
X99.0Y-50.75
X99.689Y-94.0
X102.25Y-62.5
X102.5Y-57.25
X103.25Y-51.0
X103.25Y-68.25
X103.5Y-74.75
X106.0Y-51.0
X107.939Y-104.0
X108.0Y-68.5
X108.189Y-86.5
X112.5Y-63.25
X112.5Y-75.75
X113.0Y-50.75
X113.0Y-69.75
X114.75Y-55.25
X115.439Y-105.5
X115.689Y-88.5
X116.189Y-95.0
X117.75Y-50.5
X120.25Y-63.0
X121.75Y-51.0
X126.25Y-71.5
X126.57Y-102.57
X127.25Y-59.0
X131.75Y-63.5
X132.0Y-55.25
X132.5Y-81.5
X133.75Y-75.0
X137.5Y-57.0
X137.8Y-93.04
X140.5Y-81.0
X142.98Y-102.81
X143.25Y-51.25
X143.5Y-54.75
X144.0Y-57.25
X144.5Y-67.75
X145.0Y-64.25
X145.0Y-73.5
X148.25Y-54.5
X148.25Y-57.0
X149.5Y-91.76
X151.5Y-57.0
X151.75Y-52.0
X152.33Y-98.98
X154.0Y-81.75
T2
X60.28Y-82.9
X67.9Y-82.9
X99.241Y-53.73
X99.241Y-61.35
X99.25Y-64.0
X99.25Y-71.62
X113.38Y-53.75
X113.38Y-73.0
X121.0Y-53.75
X121.0Y-73.0
X129.56Y-62.0
X129.56Y-69.62
X146.5Y-53.5
X146.5Y-61.12
X146.69Y-64.75
X146.69Y-68.25
X146.69Y-71.75
X146.75Y-75.5
X150.0Y-53.5
X150.0Y-61.12
X153.5Y-53.5
X153.5Y-61.12
X154.31Y-64.75
X154.31Y-68.25
X154.31Y-71.75
X154.37Y-75.5
T3
X115.96Y-58.0
X115.96Y-68.5
X117.23Y-58.0
X117.23Y-68.5
X118.5Y-58.0
X118.5Y-68.5
X139.98Y-73.75
X141.25Y-73.75
X142.52Y-73.75
T4
X64.0Y-71.0
X64.0Y-73.54
X64.0Y-76.08
X72.88Y-55.0
X72.88Y-57.54
X72.88Y-60.08
X72.88Y-62.62
X72.88Y-65.16
X72.88Y-67.7
X72.88Y-70.24
X80.5Y-55.0
X80.5Y-57.54
X80.5Y-60.08
X80.5Y-62.62
X80.5Y-65.16
X80.5Y-67.7
X80.5Y-70.24
X86.38Y-54.96
X86.38Y-57.5
X86.38Y-60.04
X86.38Y-62.58
X86.38Y-65.12
X86.38Y-67.66
X86.38Y-70.2
X94.0Y-54.96
X94.0Y-57.5
X94.0Y-60.04
X94.0Y-62.58
X94.0Y-65.12
X94.0Y-67.66
X94.0Y-70.2
X102.88Y-55.0
X102.88Y-59.5
X102.88Y-66.0
X102.88Y-70.5
X103.569Y-90.01
X103.569Y-92.55
X103.569Y-95.09
X103.569Y-97.63
X103.569Y-100.17
X103.569Y-102.71
X103.569Y-105.25
X110.5Y-55.0
X110.5Y-59.5
X110.5Y-66.0
X110.5Y-70.5
X111.189Y-90.01
X111.189Y-92.55
X111.189Y-95.09
X111.189Y-97.63
X111.189Y-100.17
X111.189Y-102.71
X111.189Y-105.25
X129.495Y-89.25
X129.495Y-96.87
X132.035Y-89.25
X132.035Y-96.87
X133.94Y-53.5
X133.94Y-56.04
X133.94Y-58.58
X133.94Y-61.12
X133.94Y-63.66
X133.94Y-66.2
X133.94Y-68.74
X134.575Y-89.25
X134.575Y-96.87
X137.115Y-89.25
X137.115Y-96.87
X139.655Y-89.25
X139.655Y-96.87
X141.56Y-53.5
X141.56Y-56.04
X141.56Y-58.58
X141.56Y-61.12
X141.56Y-63.66
X141.56Y-66.2
X141.56Y-68.74
X142.195Y-89.25
X142.195Y-96.87
X144.735Y-89.25
X144.735Y-96.87
T5
X62.53Y-87.57
X65.07Y-87.57
T6
X64.0Y-53.5
X64.0Y-60.46
X64.0Y-63.0
X73.5Y-79.5
X73.57Y-84.83
X81.0Y-79.5
X87.24Y-97.322
X88.5Y-79.5
X89.787Y-97.32
X89.792Y-99.862
X92.319Y-97.3
X96.0Y-79.5
X103.5Y-79.5
X111.0Y-79.5
X118.5Y-79.5
X125.19Y-60.5
X125.19Y-65.5
X126.5Y-79.5
X129.56Y-53.5
X129.56Y-58.5
X147.5Y-50.0
X152.5Y-50.0
T7
X61.02Y-107.98
X61.07Y-45.03
X153.95Y-45.07
X153.95Y-107.96
M30
